<mxfile host="app.diagrams.net" agent="Mozilla/5.0 (Macintosh; Intel Mac OS X 10_15_7) AppleWebKit/537.36 (KHTML, like Gecko) Chrome/135.0.0.0 Safari/537.36" version="26.2.13">
  <diagram name="Page-1" id="c7558073-3199-34d8-9f00-42111426c3f3">
    <mxGraphModel dx="1020" dy="595" grid="1" gridSize="10" guides="1" tooltips="1" connect="1" arrows="1" fold="1" page="1" pageScale="1" pageWidth="826" pageHeight="1169" background="none" math="0" shadow="0">
      <root>
        <mxCell id="0" />
        <mxCell id="1" parent="0" />
        <mxCell id="2" value="&lt;p style=&quot;margin: 0px; margin-top: 4px; text-align: center; text-decoration: underline;&quot;&gt;Easy acquisition&amp;nbsp;&lt;/p&gt;&lt;p style=&quot;margin: 0px; margin-top: 4px; text-align: center; text-decoration: underline;&quot;&gt;integration&lt;/p&gt;" style="verticalAlign=middle;align=center;overflow=fill;fontSize=12;fontFamily=Helvetica;html=1;rounded=1;fontStyle=1;strokeWidth=3;fillColor=#E6FFCC" parent="1" vertex="1">
          <mxGeometry x="279.5" y="199" width="110" height="39" as="geometry" />
        </mxCell>
        <mxCell id="3" value="Sale Planning Opp" style="whiteSpace=wrap;align=center;verticalAlign=middle;fontStyle=1;strokeWidth=3;fillColor=#FFFFCC" parent="1" vertex="1">
          <mxGeometry x="291" y="134" width="90" height="60" as="geometry" />
        </mxCell>
        <mxCell id="StNsoj_P8_iYhHm3oGqo-103" value="" style="edgeStyle=orthogonalEdgeStyle;rounded=0;orthogonalLoop=1;jettySize=auto;html=1;" parent="1" source="4" target="StNsoj_P8_iYhHm3oGqo-101" edge="1">
          <mxGeometry relative="1" as="geometry" />
        </mxCell>
        <mxCell id="StNsoj_P8_iYhHm3oGqo-104" value="" style="edgeStyle=orthogonalEdgeStyle;rounded=0;orthogonalLoop=1;jettySize=auto;html=1;" parent="1" source="4" target="StNsoj_P8_iYhHm3oGqo-101" edge="1">
          <mxGeometry relative="1" as="geometry" />
        </mxCell>
        <mxCell id="StNsoj_P8_iYhHm3oGqo-105" style="edgeStyle=orthogonalEdgeStyle;rounded=0;orthogonalLoop=1;jettySize=auto;html=1;exitX=1;exitY=0.5;exitDx=0;exitDy=0;entryX=0;entryY=0.5;entryDx=0;entryDy=0;" parent="1" source="4" target="3" edge="1">
          <mxGeometry relative="1" as="geometry" />
        </mxCell>
        <mxCell id="4" value="Research Market&#xa;Frequency once per year&#xa;&#xa;In SF&#xa;Do analysis in Excel" style="whiteSpace=wrap;align=center;verticalAlign=middle;fontStyle=1;strokeWidth=3;fillColor=#FFFFCC" parent="1" vertex="1">
          <mxGeometry x="41" y="125" width="160" height="79" as="geometry" />
        </mxCell>
        <mxCell id="36" value="" style="edgeStyle=none;noEdgeStyle=1;strokeColor=#990000;strokeWidth=2" parent="1" source="3" target="2" edge="1">
          <mxGeometry width="100" height="100" relative="1" as="geometry">
            <mxPoint x="221" y="128" as="sourcePoint" />
            <mxPoint x="321" y="28" as="targetPoint" />
          </mxGeometry>
        </mxCell>
        <mxCell id="StNsoj_P8_iYhHm3oGqo-96" value="&lt;p style=&quot;margin: 0px; margin-top: 4px; text-align: center; text-decoration: underline;&quot;&gt;Lunch paid&lt;/p&gt;&lt;p style=&quot;margin: 0px; margin-top: 4px; text-align: center; text-decoration: underline;&quot;&gt;Location&lt;/p&gt;&lt;p style=&quot;margin: 0px; margin-top: 4px; text-align: center; text-decoration: underline;&quot;&gt;partner&lt;/p&gt;&lt;p style=&quot;margin: 0px; margin-top: 4px; text-align: center; text-decoration: underline;&quot;&gt;competitors&lt;/p&gt;&lt;p style=&quot;margin: 0px; margin-top: 4px; text-align: center; text-decoration: underline;&quot;&gt;&lt;br&gt;&lt;/p&gt;" style="verticalAlign=middle;align=center;overflow=fill;fontSize=12;fontFamily=Helvetica;html=1;rounded=1;fontStyle=1;strokeWidth=3;fillColor=#E6FFCC" parent="1" vertex="1">
          <mxGeometry x="51" y="204" width="110" height="104" as="geometry" />
        </mxCell>
        <mxCell id="StNsoj_P8_iYhHm3oGqo-100" value="" style="edgeStyle=orthogonalEdgeStyle;rounded=0;orthogonalLoop=1;jettySize=auto;html=1;" parent="1" source="StNsoj_P8_iYhHm3oGqo-98" target="4" edge="1">
          <mxGeometry relative="1" as="geometry" />
        </mxCell>
        <mxCell id="StNsoj_P8_iYhHm3oGqo-98" value="External Feed&#xa;" style="whiteSpace=wrap;align=center;verticalAlign=middle;fontStyle=1;strokeWidth=3;fillColor=#FFFFCC" parent="1" vertex="1">
          <mxGeometry x="41" y="32" width="160" height="42" as="geometry" />
        </mxCell>
        <mxCell id="StNsoj_P8_iYhHm3oGqo-101" value="Owns by Philip/Nikki" style="ellipse;whiteSpace=wrap;html=1;" parent="1" vertex="1">
          <mxGeometry x="181" y="76" width="80" height="49" as="geometry" />
        </mxCell>
        <mxCell id="StNsoj_P8_iYhHm3oGqo-102" value="Need to fix &#xa;bi-derectional data merging between e-comeerce and SF.&#xa;Feed daily or real-time" style="shape=process;whiteSpace=wrap;align=center;verticalAlign=middle;size=0.0475;fontStyle=1;strokeWidth=3;fillColor=#FFCCCC" parent="1" vertex="1">
          <mxGeometry x="381" y="44" width="150" height="90" as="geometry" />
        </mxCell>
        <mxCell id="StNsoj_P8_iYhHm3oGqo-106" value="Better way to Review School Tier" style="shape=process;whiteSpace=wrap;align=center;verticalAlign=middle;size=0.0475;fontStyle=1;strokeWidth=3;fillColor=#FFCCCC" parent="1" vertex="1">
          <mxGeometry x="191" y="204" width="80" height="60" as="geometry" />
        </mxCell>
        <mxCell id="StNsoj_P8_iYhHm3oGqo-114" value="" style="edgeStyle=orthogonalEdgeStyle;rounded=0;orthogonalLoop=1;jettySize=auto;html=1;" parent="1" source="StNsoj_P8_iYhHm3oGqo-107" target="StNsoj_P8_iYhHm3oGqo-113" edge="1">
          <mxGeometry relative="1" as="geometry" />
        </mxCell>
        <mxCell id="StNsoj_P8_iYhHm3oGqo-107" value="Contracts&#xa;Stored in SF and Monday.com" style="whiteSpace=wrap;align=center;verticalAlign=middle;fontStyle=1;strokeWidth=3;fillColor=#FFFFCC" parent="1" vertex="1">
          <mxGeometry x="181" y="417" width="160" height="60" as="geometry" />
        </mxCell>
        <mxCell id="StNsoj_P8_iYhHm3oGqo-108" value="Keep one source of truth for Contracts when Edit" style="shape=process;whiteSpace=wrap;align=center;verticalAlign=middle;size=0.0475;fontStyle=1;strokeWidth=3;fillColor=#FFCCCC" parent="1" vertex="1">
          <mxGeometry x="331" y="327" width="80" height="90" as="geometry" />
        </mxCell>
        <mxCell id="StNsoj_P8_iYhHm3oGqo-109" value="UI to view all hierarchical contracts (District &gt; school) " style="shape=process;whiteSpace=wrap;align=center;verticalAlign=middle;size=0.0475;fontStyle=1;strokeWidth=3;fillColor=#FFCCCC" parent="1" vertex="1">
          <mxGeometry x="151" y="327" width="80" height="90" as="geometry" />
        </mxCell>
        <mxCell id="StNsoj_P8_iYhHm3oGqo-110" value="Integration with E-commerce" style="shape=process;whiteSpace=wrap;align=center;verticalAlign=middle;size=0.0475;fontStyle=1;strokeWidth=3;fillColor=#FFCCCC" parent="1" vertex="1">
          <mxGeometry x="101" y="447" width="80" height="90" as="geometry" />
        </mxCell>
        <mxCell id="StNsoj_P8_iYhHm3oGqo-111" value="Integration with E-commerce" style="shape=process;whiteSpace=wrap;align=center;verticalAlign=middle;size=0.0475;fontStyle=1;strokeWidth=3;fillColor=#FFCCCC" parent="1" vertex="1">
          <mxGeometry x="21" y="382" width="80" height="90" as="geometry" />
        </mxCell>
        <mxCell id="StNsoj_P8_iYhHm3oGqo-113" value="Execute Agreement&lt;div&gt;Store in Precisely&amp;nbsp;&lt;/div&gt;" style="whiteSpace=wrap;html=1;fillColor=#FFFFCC;fontStyle=1;strokeWidth=3;" parent="1" vertex="1">
          <mxGeometry x="441" y="417" width="120" height="60" as="geometry" />
        </mxCell>
        <mxCell id="StNsoj_P8_iYhHm3oGqo-115" value="Need integration with SF if data changes in contract" style="shape=process;whiteSpace=wrap;align=center;verticalAlign=middle;size=0.0475;fontStyle=1;strokeWidth=3;fillColor=#FFCCCC" parent="1" vertex="1">
          <mxGeometry x="561" y="337" width="80" height="90" as="geometry" />
        </mxCell>
        <mxCell id="StNsoj_P8_iYhHm3oGqo-116" value="Custom notes, need to capture in field" style="shape=process;whiteSpace=wrap;align=center;verticalAlign=middle;size=0.0475;fontStyle=1;strokeWidth=3;fillColor=#FFCCCC" parent="1" vertex="1">
          <mxGeometry x="211" y="477" width="80" height="90" as="geometry" />
        </mxCell>
        <mxCell id="StNsoj_P8_iYhHm3oGqo-117" value="Workflow needed if approval required" style="shape=process;whiteSpace=wrap;align=center;verticalAlign=middle;size=0.0475;fontStyle=1;strokeWidth=3;fillColor=#FFCCCC" parent="1" vertex="1">
          <mxGeometry x="301" y="477" width="80" height="90" as="geometry" />
        </mxCell>
        <mxCell id="StNsoj_P8_iYhHm3oGqo-121" value="" style="edgeStyle=orthogonalEdgeStyle;rounded=0;orthogonalLoop=1;jettySize=auto;html=1;entryX=0;entryY=0.5;entryDx=0;entryDy=0;" parent="1" source="StNsoj_P8_iYhHm3oGqo-118" target="StNsoj_P8_iYhHm3oGqo-120" edge="1">
          <mxGeometry relative="1" as="geometry">
            <mxPoint x="445" y="585" as="targetPoint" />
            <Array as="points">
              <mxPoint x="425" y="680" />
              <mxPoint x="425" y="605" />
              <mxPoint x="445" y="605" />
              <mxPoint x="445" y="585" />
            </Array>
          </mxGeometry>
        </mxCell>
        <mxCell id="StNsoj_P8_iYhHm3oGqo-124" style="edgeStyle=orthogonalEdgeStyle;rounded=0;orthogonalLoop=1;jettySize=auto;html=1;entryX=0;entryY=0.5;entryDx=0;entryDy=0;" parent="1" source="StNsoj_P8_iYhHm3oGqo-118" target="StNsoj_P8_iYhHm3oGqo-123" edge="1">
          <mxGeometry relative="1" as="geometry" />
        </mxCell>
        <mxCell id="StNsoj_P8_iYhHm3oGqo-125" style="edgeStyle=orthogonalEdgeStyle;rounded=0;orthogonalLoop=1;jettySize=auto;html=1;entryX=0;entryY=0.5;entryDx=0;entryDy=0;" parent="1" source="StNsoj_P8_iYhHm3oGqo-118" target="StNsoj_P8_iYhHm3oGqo-122" edge="1">
          <mxGeometry relative="1" as="geometry" />
        </mxCell>
        <mxCell id="StNsoj_P8_iYhHm3oGqo-130" value="" style="edgeStyle=orthogonalEdgeStyle;rounded=0;orthogonalLoop=1;jettySize=auto;html=1;" parent="1" source="StNsoj_P8_iYhHm3oGqo-118" target="StNsoj_P8_iYhHm3oGqo-129" edge="1">
          <mxGeometry relative="1" as="geometry" />
        </mxCell>
        <mxCell id="StNsoj_P8_iYhHm3oGqo-118" value="Main School CRM&#xa;DB - SUMMIT" style="whiteSpace=wrap;align=center;verticalAlign=middle;fontStyle=1;strokeWidth=3;fillColor=#FFFFCC" parent="1" vertex="1">
          <mxGeometry x="220" y="655" width="165" height="50" as="geometry" />
        </mxCell>
        <mxCell id="StNsoj_P8_iYhHm3oGqo-119" value="Once contract execute, data Manually entered in Summit, Need integration" style="shape=process;whiteSpace=wrap;align=center;verticalAlign=middle;size=0.0475;fontStyle=1;strokeWidth=3;fillColor=#FFCCCC" parent="1" vertex="1">
          <mxGeometry x="190" y="594" width="190" height="61" as="geometry" />
        </mxCell>
        <mxCell id="StNsoj_P8_iYhHm3oGqo-120" value="Contracts" style="ellipse;whiteSpace=wrap;html=1;fillColor=#FFFFCC;fontStyle=1;strokeWidth=3;" parent="1" vertex="1">
          <mxGeometry x="520" y="604" width="68" height="40" as="geometry" />
        </mxCell>
        <mxCell id="StNsoj_P8_iYhHm3oGqo-122" value="Events" style="ellipse;whiteSpace=wrap;html=1;fillColor=#FFFFCC;fontStyle=1;strokeWidth=3;" parent="1" vertex="1">
          <mxGeometry x="421" y="894" width="108" height="91" as="geometry" />
        </mxCell>
        <mxCell id="StNsoj_P8_iYhHm3oGqo-123" value="Jobs" style="ellipse;whiteSpace=wrap;html=1;fillColor=#FFFFCC;fontStyle=1;strokeWidth=3;" parent="1" vertex="1">
          <mxGeometry x="453" y="685" width="68" height="40" as="geometry" />
        </mxCell>
        <mxCell id="StNsoj_P8_iYhHm3oGqo-127" value="Monday.com and Jobs out of Sync." style="shape=process;whiteSpace=wrap;align=center;verticalAlign=middle;size=0.0475;fontStyle=1;strokeWidth=3;fillColor=#FFCCCC" parent="1" vertex="1">
          <mxGeometry x="521" y="675" width="94" height="70" as="geometry" />
        </mxCell>
        <mxCell id="StNsoj_P8_iYhHm3oGqo-128" value="Custom templates to capture Raw fields" style="shape=process;whiteSpace=wrap;align=center;verticalAlign=middle;size=0.0475;fontStyle=1;strokeWidth=3;fillColor=#FFCCCC" parent="1" vertex="1">
          <mxGeometry x="427" y="725" width="94" height="70" as="geometry" />
        </mxCell>
        <mxCell id="StNsoj_P8_iYhHm3oGqo-129" value="Incentives" style="ellipse;whiteSpace=wrap;html=1;fillColor=#FFFFCC;fontStyle=1;strokeWidth=3;" parent="1" vertex="1">
          <mxGeometry x="268.5" y="740" width="68" height="40" as="geometry" />
        </mxCell>
        <mxCell id="StNsoj_P8_iYhHm3oGqo-131" value="Drop down to capture data (currently free form)" style="shape=process;whiteSpace=wrap;align=center;verticalAlign=middle;size=0.0475;fontStyle=1;strokeWidth=3;fillColor=#FFCCCC" parent="1" vertex="1">
          <mxGeometry x="259.5" y="780" width="94" height="70" as="geometry" />
        </mxCell>
        <mxCell id="StNsoj_P8_iYhHm3oGqo-132" value="Modular based decoupling of monolith app(Customer facing, Scheduling, Track jobs, Sales Rep, School Rep) (Department or workflow wise)" style="shape=process;whiteSpace=wrap;align=center;verticalAlign=middle;size=0.0475;fontStyle=1;strokeWidth=3;fillColor=#FFCCCC" parent="1" vertex="1">
          <mxGeometry x="16" y="655" width="200" height="90" as="geometry" />
        </mxCell>
        <mxCell id="StNsoj_P8_iYhHm3oGqo-134" value="Steve prefer -&amp;nbsp;&lt;br&gt;All data should be Single Source of Truth (use anything prefer .Net core over .Net" style="rounded=0;whiteSpace=wrap;html=1;fillColor=#CCFFFF;" parent="1" vertex="1">
          <mxGeometry x="674" y="328" width="120" height="89" as="geometry" />
        </mxCell>
        <mxCell id="StNsoj_P8_iYhHm3oGqo-135" value="Contract shouldn&#39;t stay in SUMMIT" style="shape=process;whiteSpace=wrap;align=center;verticalAlign=middle;size=0.0475;fontStyle=1;strokeWidth=3;fillColor=#FFCCCC" parent="1" vertex="1">
          <mxGeometry x="381" y="594" width="94" height="61" as="geometry" />
        </mxCell>
        <mxCell id="StNsoj_P8_iYhHm3oGqo-136" value="Data not properly capture or partially capture" style="shape=process;whiteSpace=wrap;align=center;verticalAlign=middle;size=0.0475;fontStyle=1;strokeWidth=3;fillColor=#FFCCCC" parent="1" vertex="1">
          <mxGeometry x="533" y="894" width="94" height="80" as="geometry" />
        </mxCell>
        <mxCell id="StNsoj_P8_iYhHm3oGqo-137" value="Notes to be capture in data field" style="shape=process;whiteSpace=wrap;align=center;verticalAlign=middle;size=0.0475;fontStyle=1;strokeWidth=3;fillColor=#FFCCCC" parent="1" vertex="1">
          <mxGeometry x="432" y="984" width="94" height="80" as="geometry" />
        </mxCell>
        <mxCell id="StNsoj_P8_iYhHm3oGqo-138" value="Events not confirmed if data is missing by certain time threshold" style="shape=process;whiteSpace=wrap;align=center;verticalAlign=middle;size=0.0475;fontStyle=1;strokeWidth=3;fillColor=#FFCCCC" parent="1" vertex="1">
          <mxGeometry x="627" y="974" width="94" height="90" as="geometry" />
        </mxCell>
        <mxCell id="StNsoj_P8_iYhHm3oGqo-139" value="Communication between school &amp; sales rep" style="shape=process;whiteSpace=wrap;align=center;verticalAlign=middle;size=0.0475;fontStyle=1;strokeWidth=3;fillColor=#FFCCCC" parent="1" vertex="1">
          <mxGeometry x="415" y="814" width="120" height="80" as="geometry" />
        </mxCell>
        <mxCell id="StNsoj_P8_iYhHm3oGqo-140" value="Option to upload blueprints of site (for future reference)&#xa;while on-boarding or visting for event" style="shape=process;whiteSpace=wrap;align=center;verticalAlign=middle;size=0.0475;fontStyle=1;strokeWidth=3;fillColor=#FFCCCC" parent="1" vertex="1">
          <mxGeometry x="327" y="955" width="94" height="150" as="geometry" />
        </mxCell>
        <mxCell id="StNsoj_P8_iYhHm3oGqo-141" value="Capture feedback or notes after every event " style="shape=process;whiteSpace=wrap;align=center;verticalAlign=middle;size=0.0475;fontStyle=1;strokeWidth=3;fillColor=#FFCCCC" parent="1" vertex="1">
          <mxGeometry x="235" y="955" width="94" height="80" as="geometry" />
        </mxCell>
        <mxCell id="StNsoj_P8_iYhHm3oGqo-142" value="WORKFLOW for Request &gt; Approval &gt; Schedule &gt; Exception" style="shape=process;whiteSpace=wrap;align=center;verticalAlign=middle;size=0.0475;fontStyle=1;strokeWidth=3;fillColor=#FFCCCC" parent="1" vertex="1">
          <mxGeometry x="627" y="835" width="172" height="80" as="geometry" />
        </mxCell>
        <mxCell id="StNsoj_P8_iYhHm3oGqo-144" value="Time to time notifications remainders" style="shape=process;whiteSpace=wrap;align=center;verticalAlign=middle;size=0.0475;fontStyle=1;strokeWidth=3;fillColor=#FFCCCC" parent="1" vertex="1">
          <mxGeometry x="725" y="915" width="94" height="80" as="geometry" />
        </mxCell>
        <mxCell id="StNsoj_P8_iYhHm3oGqo-145" value="Data file (Student info) missing ?? Event in first 3 weeks" style="shape=process;whiteSpace=wrap;align=center;verticalAlign=middle;size=0.0475;fontStyle=1;strokeWidth=3;fillColor=#FFCCCC" parent="1" vertex="1">
          <mxGeometry x="721" y="1015" width="94" height="80" as="geometry" />
        </mxCell>
        <mxCell id="StNsoj_P8_iYhHm3oGqo-146" value="Real time communication if event attributes/status changed" style="shape=process;whiteSpace=wrap;align=center;verticalAlign=middle;size=0.0475;fontStyle=1;strokeWidth=3;fillColor=#FFCCCC" parent="1" vertex="1">
          <mxGeometry x="515" y="1064" width="110" height="80" as="geometry" />
        </mxCell>
        <mxCell id="StNsoj_P8_iYhHm3oGqo-148" value="How We Should&lt;div&gt;What We Deliverables&lt;/div&gt;" style="rounded=1;whiteSpace=wrap;html=1;" parent="1" vertex="1">
          <mxGeometry x="42" y="865" width="140" height="60" as="geometry" />
        </mxCell>
        <mxCell id="StNsoj_P8_iYhHm3oGqo-149" value="Calculate School rating based on Feedback" style="shape=process;whiteSpace=wrap;align=center;verticalAlign=middle;size=0.0475;fontStyle=1;strokeWidth=3;fillColor=#dae8fc;strokeColor=#6c8ebf;" parent="1" vertex="1">
          <mxGeometry x="233" y="1035" width="94" height="80" as="geometry" />
        </mxCell>
        <mxCell id="StNsoj_P8_iYhHm3oGqo-150" value="Steve prefer&lt;br&gt;Big fan of open source like postgres / kafka" style="rounded=0;whiteSpace=wrap;html=1;fillColor=#CCFFFF;" parent="1" vertex="1">
          <mxGeometry x="674" y="417" width="120" height="89" as="geometry" />
        </mxCell>
        <mxCell id="StNsoj_P8_iYhHm3oGqo-151" value="Missing Workflow for Equipment delivery (Inventory management to track items like Camera IN/OUT" style="shape=process;whiteSpace=wrap;align=center;verticalAlign=middle;size=0.0475;fontStyle=1;strokeWidth=3;fillColor=#dae8fc;strokeColor=#6c8ebf;" parent="1" vertex="1">
          <mxGeometry x="41" y="944" width="124" height="120" as="geometry" />
        </mxCell>
        <mxCell id="StNsoj_P8_iYhHm3oGqo-153" value="Matching students record is a big issue, create multiple profiles" style="shape=process;whiteSpace=wrap;align=center;verticalAlign=middle;size=0.0475;fontStyle=1;strokeWidth=3;fillColor=#FFCCCC" parent="1" vertex="1">
          <mxGeometry x="591" y="189" width="80" height="109" as="geometry" />
        </mxCell>
        <mxCell id="StNsoj_P8_iYhHm3oGqo-154" value="Choose the wrong session SD card" style="shape=process;whiteSpace=wrap;align=center;verticalAlign=middle;size=0.0475;fontStyle=1;strokeWidth=3;fillColor=#FFCCCC" parent="1" vertex="1">
          <mxGeometry x="106" y="1064" width="110" height="80" as="geometry" />
        </mxCell>
        <mxCell id="StNsoj_P8_iYhHm3oGqo-158" style="edgeStyle=orthogonalEdgeStyle;rounded=0;orthogonalLoop=1;jettySize=auto;html=1;entryX=0;entryY=0.5;entryDx=0;entryDy=0;exitX=1;exitY=0.5;exitDx=0;exitDy=0;" parent="1" source="StNsoj_P8_iYhHm3oGqo-155" target="StNsoj_P8_iYhHm3oGqo-156" edge="1">
          <mxGeometry relative="1" as="geometry" />
        </mxCell>
        <mxCell id="StNsoj_P8_iYhHm3oGqo-159" style="edgeStyle=orthogonalEdgeStyle;rounded=0;orthogonalLoop=1;jettySize=auto;html=1;entryX=0;entryY=0.5;entryDx=0;entryDy=0;" parent="1" source="StNsoj_P8_iYhHm3oGqo-155" target="StNsoj_P8_iYhHm3oGqo-157" edge="1">
          <mxGeometry relative="1" as="geometry" />
        </mxCell>
        <mxCell id="StNsoj_P8_iYhHm3oGqo-155" value="Event Planning" style="whiteSpace=wrap;align=center;verticalAlign=middle;fontStyle=1;strokeWidth=3;fillColor=#FFFFCC" parent="1" vertex="1">
          <mxGeometry x="73.5" y="1349" width="120.5" height="50" as="geometry" />
        </mxCell>
        <mxCell id="StNsoj_P8_iYhHm3oGqo-161" value="" style="edgeStyle=orthogonalEdgeStyle;rounded=0;orthogonalLoop=1;jettySize=auto;html=1;" parent="1" source="StNsoj_P8_iYhHm3oGqo-156" target="StNsoj_P8_iYhHm3oGqo-160" edge="1">
          <mxGeometry relative="1" as="geometry">
            <Array as="points">
              <mxPoint x="384" y="1319" />
              <mxPoint x="384" y="1259" />
            </Array>
          </mxGeometry>
        </mxCell>
        <mxCell id="StNsoj_P8_iYhHm3oGqo-156" value="Tether" style="ellipse;whiteSpace=wrap;html=1;fillColor=#FFFFCC;" parent="1" vertex="1">
          <mxGeometry x="246" y="1289" width="120" height="60" as="geometry" />
        </mxCell>
        <mxCell id="StNsoj_P8_iYhHm3oGqo-157" value="Offline SD" style="ellipse;whiteSpace=wrap;html=1;strokeColor=default;align=center;verticalAlign=middle;fontFamily=Helvetica;fontSize=12;fontColor=default;fillColor=#FFFFCC;" parent="1" vertex="1">
          <mxGeometry x="245.5" y="1379" width="120" height="60" as="geometry" />
        </mxCell>
        <mxCell id="StNsoj_P8_iYhHm3oGqo-160" value="Sync. the Event details&lt;div&gt;Identified /&amp;nbsp;&lt;span style=&quot;background-color: transparent; color: light-dark(rgb(0, 0, 0), rgb(255, 255, 255));&quot;&gt;Matching&amp;nbsp;&lt;/span&gt;&lt;span style=&quot;background-color: transparent; color: light-dark(rgb(0, 0, 0), rgb(255, 255, 255));&quot;&gt;the Kid&lt;/span&gt;&lt;/div&gt;&lt;div&gt;(Student Id)&lt;/div&gt;&lt;div&gt;&lt;/div&gt;" style="whiteSpace=wrap;html=1;fillColor=#FFFFCC;" parent="1" vertex="1">
          <mxGeometry x="404" y="1229" width="180" height="60" as="geometry" />
        </mxCell>
        <mxCell id="StNsoj_P8_iYhHm3oGqo-162" value="Choose the wrong Kid" style="shape=process;whiteSpace=wrap;align=center;verticalAlign=middle;size=0.0475;fontStyle=1;strokeWidth=3;fillColor=#FFCCCC" parent="1" vertex="1">
          <mxGeometry x="584" y="1219" width="110" height="80" as="geometry" />
        </mxCell>
        <mxCell id="StNsoj_P8_iYhHm3oGqo-165" value="" style="edgeStyle=orthogonalEdgeStyle;rounded=0;orthogonalLoop=1;jettySize=auto;html=1;" parent="1" source="StNsoj_P8_iYhHm3oGqo-163" target="StNsoj_P8_iYhHm3oGqo-164" edge="1">
          <mxGeometry relative="1" as="geometry" />
        </mxCell>
        <mxCell id="StNsoj_P8_iYhHm3oGqo-163" value="Photopass app" style="whiteSpace=wrap;align=center;verticalAlign=middle;fontStyle=1;strokeWidth=3;fillColor=#FFFFCC" parent="1" vertex="1">
          <mxGeometry x="74" y="1499" width="120.5" height="50" as="geometry" />
        </mxCell>
        <mxCell id="StNsoj_P8_iYhHm3oGqo-164" value="Self validation from Subject" style="whiteSpace=wrap;html=1;fillColor=#FFFFCC;fontStyle=1;strokeWidth=3;" parent="1" vertex="1">
          <mxGeometry x="245.5" y="1494" width="120" height="60" as="geometry" />
        </mxCell>
        <mxCell id="StNsoj_P8_iYhHm3oGqo-167" value="Opportunity to create Studio App(Tablet or Desktop) for Field Workers" style="whiteSpace=wrap;html=1;fillColor=#ffe6cc;fontStyle=1;strokeWidth=3;strokeColor=#d79b00;" parent="1" vertex="1">
          <mxGeometry x="324" y="1669" width="140" height="100" as="geometry" />
        </mxCell>
        <mxCell id="StNsoj_P8_iYhHm3oGqo-170" value="Water Mark" style="ellipse;whiteSpace=wrap;html=1;strokeColor=#b85450;align=center;verticalAlign=middle;fontFamily=Helvetica;fontSize=12;fillColor=#f8cecc;" parent="1" vertex="1">
          <mxGeometry x="450" y="1739" width="120" height="60" as="geometry" />
        </mxCell>
        <mxCell id="StNsoj_P8_iYhHm3oGqo-172" value="Order / Selling Flow" style="ellipse;whiteSpace=wrap;html=1;strokeColor=#b85450;align=center;verticalAlign=middle;fontFamily=Helvetica;fontSize=12;fillColor=#f8cecc;" parent="1" vertex="1">
          <mxGeometry x="450" y="1629" width="120" height="60" as="geometry" />
        </mxCell>
        <mxCell id="StNsoj_P8_iYhHm3oGqo-173" value="Event info / Real time updates" style="ellipse;whiteSpace=wrap;html=1;strokeColor=#b85450;align=center;verticalAlign=middle;fontFamily=Helvetica;fontSize=12;fillColor=#f8cecc;" parent="1" vertex="1">
          <mxGeometry x="206" y="1639" width="120" height="60" as="geometry" />
        </mxCell>
        <mxCell id="StNsoj_P8_iYhHm3oGqo-175" value="Upload Photos" style="ellipse;whiteSpace=wrap;html=1;strokeColor=#b85450;align=center;verticalAlign=middle;fontFamily=Helvetica;fontSize=12;fillColor=#f8cecc;" parent="1" vertex="1">
          <mxGeometry x="210" y="1729" width="120" height="60" as="geometry" />
        </mxCell>
        <mxCell id="StNsoj_P8_iYhHm3oGqo-176" value="Look online any field service app for reference" style="shape=document;whiteSpace=wrap;html=1;boundedLbl=1;fillColor=#f5f5f5;fontColor=#333333;strokeColor=#666666;" parent="1" vertex="1">
          <mxGeometry x="594" y="1679" width="120" height="80" as="geometry" />
        </mxCell>
        <mxCell id="StNsoj_P8_iYhHm3oGqo-177" value="Inventory info" style="ellipse;whiteSpace=wrap;html=1;strokeColor=#b85450;align=center;verticalAlign=middle;fontFamily=Helvetica;fontSize=12;fillColor=#f8cecc;" parent="1" vertex="1">
          <mxGeometry x="330" y="1609" width="120" height="60" as="geometry" />
        </mxCell>
        <mxCell id="StNsoj_P8_iYhHm3oGqo-178" value="Notifications / Alerts" style="ellipse;whiteSpace=wrap;html=1;strokeColor=#b85450;align=center;verticalAlign=middle;fontFamily=Helvetica;fontSize=12;fillColor=#f8cecc;" parent="1" vertex="1">
          <mxGeometry x="330" y="1769" width="120" height="60" as="geometry" />
        </mxCell>
        <mxCell id="Y_21FP0N59DK810GuoUt-36" value="List of Exceptions&#xa;catalog" style="shape=process;whiteSpace=wrap;align=center;verticalAlign=middle;size=0.0475;fontStyle=1;strokeWidth=3;fillColor=#FFCCCC" vertex="1" parent="1">
          <mxGeometry x="40" y="1850" width="110" height="50" as="geometry" />
        </mxCell>
        <mxCell id="Y_21FP0N59DK810GuoUt-37" value="On-boarding &#xa;tracking missing" style="shape=process;whiteSpace=wrap;align=center;verticalAlign=middle;size=0.0475;fontStyle=1;strokeWidth=3;fillColor=#FFCCCC" vertex="1" parent="1">
          <mxGeometry x="40" y="1900" width="110" height="50" as="geometry" />
        </mxCell>
        <mxCell id="Y_21FP0N59DK810GuoUt-38" value="School event tracking is not properly&#xa;Communication missing&#xa;GAP" style="shape=process;whiteSpace=wrap;align=center;verticalAlign=middle;size=0.0475;fontStyle=1;strokeWidth=3;fillColor=#FFCCCC" vertex="1" parent="1">
          <mxGeometry x="151" y="1850" width="110" height="100" as="geometry" />
        </mxCell>
        <mxCell id="Y_21FP0N59DK810GuoUt-39" value="Show previous year exceptions happen so easy to plan future" style="shape=process;whiteSpace=wrap;align=center;verticalAlign=middle;size=0.0475;fontStyle=1;strokeWidth=3;fillColor=#FFCCCC" vertex="1" parent="1">
          <mxGeometry x="261" y="1850" width="110" height="70" as="geometry" />
        </mxCell>
        <mxCell id="Y_21FP0N59DK810GuoUt-40" value="GOAL&#xa;What are we doing&#xa;What we deliver" style="shape=process;whiteSpace=wrap;align=center;verticalAlign=middle;size=0.0475;fontStyle=1;strokeWidth=3;fillColor=#FFCCCC" vertex="1" parent="1">
          <mxGeometry x="33" y="1190" width="140" height="51" as="geometry" />
        </mxCell>
        <mxCell id="Y_21FP0N59DK810GuoUt-41" value="Find an Outlier during event" style="shape=process;whiteSpace=wrap;align=center;verticalAlign=middle;size=0.0475;fontStyle=1;strokeWidth=3;fillColor=#FFCCCC" vertex="1" parent="1">
          <mxGeometry x="151" y="1990" width="110" height="50" as="geometry" />
        </mxCell>
        <mxCell id="Y_21FP0N59DK810GuoUt-42" value="Comments / Attributes at Subject level in an event" style="shape=process;whiteSpace=wrap;align=center;verticalAlign=middle;size=0.0475;fontStyle=1;strokeWidth=3;fillColor=#FFCCCC" vertex="1" parent="1">
          <mxGeometry x="261" y="1990" width="110" height="60" as="geometry" />
        </mxCell>
        <mxCell id="Y_21FP0N59DK810GuoUt-43" value="Add sub tasks to capture outlier details" style="shape=process;whiteSpace=wrap;align=center;verticalAlign=middle;size=0.0475;fontStyle=1;strokeWidth=3;fillColor=#FFCCCC" vertex="1" parent="1">
          <mxGeometry x="151" y="2040" width="110" height="50" as="geometry" />
        </mxCell>
        <mxCell id="Y_21FP0N59DK810GuoUt-44" value="WORKFLOW missing for all batch jobs status&#xa;GAP" style="shape=process;whiteSpace=wrap;align=center;verticalAlign=middle;size=0.0475;fontStyle=1;strokeWidth=3;fillColor=#FFCCCC" vertex="1" parent="1">
          <mxGeometry x="424" y="1850" width="116" height="60" as="geometry" />
        </mxCell>
        <mxCell id="Y_21FP0N59DK810GuoUt-45" value="WORKFLOW &#xa;needed for Work/Job odrer flow" style="shape=process;whiteSpace=wrap;align=center;verticalAlign=middle;size=0.0475;fontStyle=1;strokeWidth=3;fillColor=#FFCCCC" vertex="1" parent="1">
          <mxGeometry x="424" y="1930" width="116" height="60" as="geometry" />
        </mxCell>
        <mxCell id="Y_21FP0N59DK810GuoUt-46" value="Link previous profile even if child switch the school - GAP" style="shape=process;whiteSpace=wrap;align=center;verticalAlign=middle;size=0.0475;fontStyle=1;strokeWidth=3;fillColor=#FFCCCC" vertex="1" parent="1">
          <mxGeometry x="576" y="1850" width="110" height="60" as="geometry" />
        </mxCell>
        <mxCell id="Y_21FP0N59DK810GuoUt-48" value="Notifications to parents for timely update subject profile" style="shape=process;whiteSpace=wrap;align=center;verticalAlign=middle;size=0.0475;fontStyle=1;strokeWidth=3;fillColor=#FFCCCC" vertex="1" parent="1">
          <mxGeometry x="576" y="1930" width="110" height="60" as="geometry" />
        </mxCell>
        <mxCell id="Y_21FP0N59DK810GuoUt-49" value="Link photos to Subject nor to session - GAP" style="shape=process;whiteSpace=wrap;align=center;verticalAlign=middle;size=0.0475;fontStyle=1;strokeWidth=3;fillColor=#FFCCCC" vertex="1" parent="1">
          <mxGeometry x="421" y="2010" width="116" height="60" as="geometry" />
        </mxCell>
        <mxCell id="Y_21FP0N59DK810GuoUt-50" value="Parent accounts in profile make one primary (in case of divorce if both want picture) " style="shape=process;whiteSpace=wrap;align=center;verticalAlign=middle;size=0.0475;fontStyle=1;strokeWidth=3;fillColor=#FFCCCC" vertex="1" parent="1">
          <mxGeometry x="573" y="2020" width="157" height="110" as="geometry" />
        </mxCell>
        <mxCell id="Y_21FP0N59DK810GuoUt-51" value="More granular level comparison at field level values with highlight" style="shape=process;whiteSpace=wrap;align=center;verticalAlign=middle;size=0.0475;fontStyle=1;strokeWidth=3;fillColor=#FFCCCC" vertex="1" parent="1">
          <mxGeometry x="573" y="2150" width="157" height="70" as="geometry" />
        </mxCell>
        <mxCell id="Y_21FP0N59DK810GuoUt-52" value="UI to view audit history at profile level&#xa;GAP" style="shape=process;whiteSpace=wrap;align=center;verticalAlign=middle;size=0.0475;fontStyle=1;strokeWidth=3;fillColor=#FFCCCC" vertex="1" parent="1">
          <mxGeometry x="389.5" y="2130" width="157" height="70" as="geometry" />
        </mxCell>
        <mxCell id="Y_21FP0N59DK810GuoUt-53" value="QA / QC missing &#xa;GAP" style="shape=process;whiteSpace=wrap;align=center;verticalAlign=middle;size=0.0475;fontStyle=1;strokeWidth=3;fillColor=#FFCCCC" vertex="1" parent="1">
          <mxGeometry x="27.5" y="2120" width="157" height="70" as="geometry" />
        </mxCell>
        <mxCell id="Y_21FP0N59DK810GuoUt-54" value="Scale tasks to run Async." style="shape=process;whiteSpace=wrap;align=center;verticalAlign=middle;size=0.0475;fontStyle=1;strokeWidth=3;fillColor=#FFCCCC" vertex="1" parent="1">
          <mxGeometry x="34" y="2370" width="106" height="40" as="geometry" />
        </mxCell>
        <mxCell id="Y_21FP0N59DK810GuoUt-55" value="WORKFLOW for QC&#xa; AI Model to check anomalies to spot check if Model working" style="shape=process;whiteSpace=wrap;align=center;verticalAlign=middle;size=0.0475;fontStyle=1;strokeWidth=3;fillColor=#FFCCCC" vertex="1" parent="1">
          <mxGeometry x="33" y="2430" width="157" height="70" as="geometry" />
        </mxCell>
        <mxCell id="Y_21FP0N59DK810GuoUt-56" value="AI Model to check basic errors like eyes are closed during event photo session" style="shape=process;whiteSpace=wrap;align=center;verticalAlign=middle;size=0.0475;fontStyle=1;strokeWidth=3;fillColor=#FFCCCC" vertex="1" parent="1">
          <mxGeometry x="216" y="2430" width="157" height="70" as="geometry" />
        </mxCell>
        <mxCell id="Y_21FP0N59DK810GuoUt-57" value="Push more data to &#xa;e-commerce to work standlone in case Summit DB outage" style="shape=process;whiteSpace=wrap;align=center;verticalAlign=middle;size=0.0475;fontStyle=1;strokeWidth=3;fillColor=#FFCCCC" vertex="1" parent="1">
          <mxGeometry x="190" y="2350" width="190" height="60" as="geometry" />
        </mxCell>
        <mxCell id="Y_21FP0N59DK810GuoUt-58" value="QA Automation " style="shape=process;whiteSpace=wrap;align=center;verticalAlign=middle;size=0.0475;fontStyle=1;strokeWidth=3;fillColor=#FFCCCC" vertex="1" parent="1">
          <mxGeometry x="27.5" y="2200" width="157" height="50" as="geometry" />
        </mxCell>
        <mxCell id="Y_21FP0N59DK810GuoUt-59" value="Store secrets at one place &#xa;and do password rotation regularly " style="shape=process;whiteSpace=wrap;align=center;verticalAlign=middle;size=0.0475;fontStyle=1;strokeWidth=3;fillColor=#FFCCCC" vertex="1" parent="1">
          <mxGeometry x="413" y="2350" width="190" height="60" as="geometry" />
        </mxCell>
        <mxCell id="Y_21FP0N59DK810GuoUt-60" value="Need to implement Caching" style="shape=process;whiteSpace=wrap;align=center;verticalAlign=middle;size=0.0475;fontStyle=1;strokeWidth=3;fillColor=#FFCCCC" vertex="1" parent="1">
          <mxGeometry x="415" y="2435" width="190" height="45" as="geometry" />
        </mxCell>
        <mxCell id="Y_21FP0N59DK810GuoUt-61" value="Report - Dollar per Student&#xa;GAP" style="shape=process;whiteSpace=wrap;align=center;verticalAlign=middle;size=0.0475;fontStyle=1;strokeWidth=3;fillColor=#FFCCCC" vertex="1" parent="1">
          <mxGeometry x="411" y="2520" width="190" height="45" as="geometry" />
        </mxCell>
        <mxCell id="Y_21FP0N59DK810GuoUt-62" value="Every system should work independently&#xa;Decouple / Fit ....... " style="shape=process;whiteSpace=wrap;align=center;verticalAlign=middle;size=0.0475;fontStyle=1;strokeWidth=3;fillColor=#FFCCCC" vertex="1" parent="1">
          <mxGeometry x="21" y="2540" width="190" height="45" as="geometry" />
        </mxCell>
      </root>
    </mxGraphModel>
  </diagram>
</mxfile>
